<svg width="32" height="32" viewBox="0 0 32 32" fill="none" xmlns="http://www.w3.org/2000/svg">
<mask id="mask0_33_49" style="mask-type:alpha" maskUnits="userSpaceOnUse" x="0" y="0" width="32" height="32">
<rect width="32" height="32" fill="#D9D9D9"/>
</mask>
<g mask="url(#mask0_33_49)">
<mask id="mask1_33_49" style="mask-type:alpha" maskUnits="userSpaceOnUse" x="-2" y="0" width="32" height="32">
<rect x="-2" width="32" height="32" fill="#D9D9D9"/>
</mask>
<g mask="url(#mask1_33_49)">
</g>
<mask id="mask2_33_49" style="mask-type:alpha" maskUnits="userSpaceOnUse" x="-6" y="-4" width="38" height="38">
<rect x="16.6707" y="-3.95605" width="21.4708" height="31.3442" transform="rotate(45 16.6707 -3.95605)" fill="#D9D9D9"/>
</mask>
<g mask="url(#mask2_33_49)">
<path d="M28.4041 10.7615C28.9371 8.28432 27.379 6.98483 25.8209 5.80716C24.7138 4.99498 21.4335 3.89853 15.8161 3.89853C13.8161 3.89816 11.8176 4.00661 9.82961 4.22341C9.09156 4.34523 4.66321 14.7412 3.35111 20.8732C2.69506 23.9594 2.90007 26.599 4.45819 26.599H4.82722C8.76353 25.8275 26.8869 17.7462 28.4041 10.7615ZM23.4837 10.1117C19.3105 14.7264 14.1189 18.3256 8.3125 20.6295C9.29657 16.6092 11.6748 8.81224 12.3308 8.40615C12.8363 8.26065 13.3666 8.21919 13.8889 8.28432C16.8412 8.28432 24.5088 8.77163 23.4837 10.1117V10.1117ZM47.9626 23.5534C48.7417 19.8985 48.5366 5.56351 46.9375 2.63965C46.6742 2.31824 46.3332 2.06786 45.9461 1.91169C45.5591 1.75552 45.1385 1.69862 44.7233 1.74625C43.4313 1.76764 42.1643 2.10227 41.0331 2.72087C39.803 3.37061 22.1716 25.1371 20.9825 29.4823C20.7775 30.2133 21.3105 30.66 22.1306 30.66C23.1392 30.6274 24.113 30.287 24.9188 29.6853C25.3459 29.252 25.7432 28.7907 26.1079 28.3046C27.994 25.7869 29.7162 23.1879 31.7663 20.7513C35.4481 20.3322 39.1031 19.7085 42.7142 18.8833C42.4804 20.6739 42.4254 22.483 42.5502 24.2843C42.8508 24.7251 43.2623 25.0806 43.7441 25.3157C44.2259 25.5507 44.7613 25.6571 45.2974 25.6244C45.926 25.6886 46.5553 25.5085 47.0524 25.1221C47.5496 24.7358 47.8759 24.1733 47.9626 23.5534V23.5534ZM42.8782 14.0914C40.2809 14.4053 37.7245 14.9906 35.2516 15.8376C37.5173 12.5996 39.9535 9.48191 42.5502 6.49752C42.7142 7.71579 42.7962 12.061 42.8782 14.0914V14.0914ZM79.3711 4.79194C79.4941 4.14219 79.002 3.69549 78.182 3.69549C77.2529 3.71291 76.3459 3.97956 75.5578 4.46706C72.721 6.84938 70.113 9.48669 67.7672 12.3452C65.635 14.7818 63.5438 17.3402 61.9857 19.1676C60.9516 14.8392 60.3744 10.4161 60.2636 5.9696C60.2636 4.71072 59.0745 4.42645 58.2544 4.42645C57.0703 4.39872 55.9173 4.80345 55.0152 5.56351C54.7507 5.86042 54.5797 6.22742 54.5231 6.61935C53.8671 9.5432 56.2042 19.9798 57.3933 25.2996C57.4643 25.5623 57.6266 25.7919 57.8516 25.9478C58.0765 26.1038 58.3499 26.1762 58.6234 26.1523C59.8945 26.1523 62.4777 24.2843 63.0928 23.7158C63.5276 23.296 63.9003 22.8175 64.1999 22.2945C64.3396 22.0229 64.5043 21.7646 64.6919 21.5229C65.0199 21.1168 75.8858 8.73102 78.92 5.56351C79.1348 5.34893 79.2901 5.08321 79.3711 4.79194V4.79194ZM91.426 26.2336C91.713 24.9747 90.3599 24.4874 89.5399 24.4874C89.1893 24.4998 88.8432 24.5684 88.5148 24.6904C87.4077 25.0559 83.6354 26.1929 81.1752 26.8021C81.2162 26.5178 81.2982 26.2336 81.3392 25.9087C82.6923 19.6143 88.2688 5.72594 88.9658 2.51782C89.0589 2.18717 89.073 1.83956 89.0068 1.50259C88.8463 1.06009 88.551 0.677856 88.1617 0.408705C87.7725 0.139554 87.3084 -0.00323754 86.8336 5.57092e-05C86.4173 -0.000653012 86.0082 0.107967 85.6481 0.314844C85.2879 0.521721 84.9896 0.81946 84.7835 1.17772C82.6513 4.79194 76.6649 24.1219 75.6808 28.7919C75.4816 29.3321 75.4963 29.927 75.7218 30.4569C76.4991 31.3336 77.5837 31.8852 78.756 32.0001C78.961 32.0001 79.125 31.9594 79.3301 31.9594C81.4622 31.5127 89.4168 28.4671 90.852 27.2082C91.1337 26.9445 91.333 26.6062 91.426 26.2336V26.2336ZM102.989 9.13711C102.825 7.91884 101.226 7.63458 100.365 7.63458C99.9974 7.61629 99.6301 7.6716 99.2849 7.7972C98.9397 7.9228 98.6236 8.1161 98.3555 8.36554C97.5765 9.29955 95.3623 16.0407 94.6243 19.5331C94.4198 20.287 94.3367 21.0682 94.3782 21.8478C94.5012 22.7006 95.1163 24.4061 96.1414 24.4061C96.5204 24.3984 96.8896 24.2859 97.2075 24.0813C98.6426 23.2285 102.046 14.3757 102.825 10.8427C102.952 10.2832 103.007 9.7102 102.989 9.13711V9.13711Z" fill="#B8431F"/>
</g>
</g>
</svg>
