<svg width="100" height="32" viewBox="0 0 100 32" fill="none" xmlns="http://www.w3.org/2000/svg">
<g clip-path="url(#clip0_18_31)">
<path d="M25.4041 10.7615C25.9371 8.28432 24.379 6.98483 22.8209 5.80716C21.7138 4.99498 18.4336 3.89853 12.8161 3.89853C10.8161 3.89816 8.81762 4.00661 6.82964 4.22341C6.09159 4.34523 1.66324 14.7412 0.351137 20.8732C-0.304914 23.9594 -0.0998981 26.599 1.45822 26.599H1.82725C5.76356 25.8275 23.887 17.7463 25.4041 10.7615ZM20.4837 10.1117C16.3105 14.7264 11.1189 18.3256 5.31253 20.6295C6.2966 16.6092 8.67479 8.81224 9.33084 8.40615C9.83638 8.26065 10.3666 8.21919 10.889 8.28432C13.8412 8.28432 21.5088 8.77163 20.4837 10.1117ZM44.9626 23.5534C45.7417 19.8985 45.5367 5.56351 43.9375 2.63965C43.6742 2.31824 43.3332 2.06786 42.9462 1.91169C42.5591 1.75552 42.1385 1.69862 41.7234 1.74625C40.4314 1.76764 39.1643 2.10227 38.0331 2.72087C36.803 3.37061 19.1716 25.1371 17.9825 29.4823C17.7775 30.2133 18.3105 30.66 19.1306 30.66C20.1392 30.6274 21.1131 30.287 21.9188 29.6853C22.3459 29.252 22.7432 28.7907 23.1079 28.3046C24.9941 25.7869 26.7162 23.1879 28.7664 20.7513C32.4481 20.3322 36.1031 19.7085 39.7142 18.8833C39.4804 20.6739 39.4254 22.483 39.5502 24.2843C39.8508 24.7251 40.2623 25.0806 40.7441 25.3157C41.226 25.5507 41.7614 25.6571 42.2974 25.6244C42.9261 25.6886 43.5553 25.5085 44.0525 25.1221C44.5497 24.7358 44.876 24.1733 44.9626 23.5534ZM39.8782 14.0914C37.2809 14.4053 34.7245 14.9906 32.2516 15.8376C34.5173 12.5996 36.9536 9.4819 39.5502 6.49752C39.7142 7.71579 39.7962 12.061 39.8782 14.0914ZM76.3711 4.79194C76.4941 4.14219 76.0021 3.69549 75.182 3.69549C74.2529 3.71291 73.346 3.97956 72.5578 4.46706C69.721 6.84938 67.113 9.48669 64.7672 12.3452C62.635 14.7818 60.5439 17.3402 58.9857 19.1676C57.9516 14.8392 57.3745 10.4161 57.2636 5.9696C57.2636 4.71072 56.0745 4.42645 55.2544 4.42645C54.0704 4.39872 52.9173 4.80345 52.0152 5.56351C51.7507 5.86042 51.5797 6.22742 51.5231 6.61935C50.8671 9.54321 53.2043 19.9798 54.3934 25.2996C54.4643 25.5623 54.6266 25.7919 54.8516 25.9478C55.0766 26.1038 55.3499 26.1762 55.6235 26.1523C56.8946 26.1523 59.4778 24.2843 60.0928 23.7158C60.5276 23.296 60.9003 22.8175 61.1999 22.2945C61.3397 22.0229 61.5044 21.7646 61.6919 21.5229C62.02 21.1168 72.8858 8.73102 75.9201 5.56351C76.1348 5.34893 76.2901 5.08321 76.3711 4.79194ZM88.426 26.2336C88.7131 24.9747 87.3599 24.4874 86.5399 24.4874C86.1894 24.4998 85.8432 24.5684 85.5148 24.6904C84.4077 25.0559 80.6354 26.1929 78.1752 26.8021C78.2162 26.5178 78.2982 26.2336 78.3392 25.9087C79.6924 19.6143 85.2688 5.72594 85.9658 2.51782C86.059 2.18717 86.073 1.83956 86.0069 1.50259C85.8463 1.06009 85.551 0.677856 85.1618 0.408705C84.7725 0.139554 84.3084 -0.00323754 83.8337 5.57092e-05C83.4173 -0.000653012 83.0082 0.107967 82.6481 0.314844C82.288 0.521721 81.9896 0.81946 81.7835 1.17772C79.6514 4.79193 73.6649 24.1219 72.6808 28.7919C72.4817 29.3321 72.4963 29.927 72.7218 30.4569C73.4992 31.3336 74.5837 31.8852 75.756 32.0001C75.9611 32.0001 76.1251 31.9594 76.3301 31.9594C78.4623 31.5127 86.4169 28.4671 87.852 27.2082C88.1337 26.9445 88.333 26.6062 88.426 26.2336ZM99.9889 9.13711C99.8249 7.91884 98.2258 7.63458 97.3647 7.63458C96.9974 7.61629 96.6301 7.6716 96.2849 7.7972C95.9397 7.9228 95.6236 8.1161 95.3556 8.36554C94.5765 9.29955 92.3623 16.0407 91.6243 19.5331C91.4198 20.287 91.3368 21.0682 91.3783 21.8478C91.5013 22.7006 92.1163 24.4061 93.1414 24.4061C93.5204 24.3984 93.8897 24.2859 94.2075 24.0813C95.6426 23.2285 99.0459 14.3757 99.8249 10.8427C99.9516 10.2832 100.007 9.7102 99.9889 9.13711Z" fill="#B8431F"/>
</g>
<defs>
<clipPath id="clip0_18_31">
<rect width="100" height="32" fill="white"/>
</clipPath>
</defs>
</svg>
